<svg width="52" height="52" viewBox="0 0 52 52" fill="none" xmlns="http://www.w3.org/2000/svg">
<circle cx="25.9365" cy="25.9473" r="25.3965" fill="white"/>
<g clip-path="url(#clip0_201_4)">
<path d="M39.4407 20.7293C39.6536 21.3214 38.9596 22.6815 37.359 24.8096C37.1369 25.1056 36.8362 25.4989 36.4568 25.9893C36.0867 26.4611 35.8323 26.7942 35.6935 26.9885C35.5547 27.1828 35.4136 27.4118 35.2702 27.6755C35.1268 27.9392 35.0713 28.1335 35.1037 28.2584C35.1361 28.3833 35.1962 28.5429 35.2841 28.7372C35.372 28.9315 35.5223 29.1305 35.7352 29.334C35.948 29.5376 36.2117 29.7827 36.5262 30.0696C36.5632 30.0881 36.5864 30.1066 36.5956 30.1251C37.9002 31.3372 38.7838 32.3595 39.2464 33.1923C39.2742 33.2385 39.3043 33.2964 39.3367 33.3657C39.369 33.4351 39.4014 33.5577 39.4338 33.7335C39.4662 33.9093 39.4639 34.0666 39.4269 34.2054C39.3899 34.3442 39.2742 34.4714 39.0799 34.5871C38.8856 34.7027 38.6127 34.7606 38.2611 34.7606L34.7081 34.8161C34.4861 34.8623 34.227 34.8392 33.9309 34.7467C33.6349 34.6541 33.3943 34.5524 33.2092 34.4413L32.9317 34.2748C32.6541 34.0805 32.3303 33.7844 31.9602 33.3866C31.5901 32.9887 31.2732 32.6302 31.0095 32.311C30.7458 31.9918 30.4636 31.7234 30.1629 31.506C29.8622 31.2886 29.6008 31.2169 29.3787 31.2909C29.351 31.3001 29.314 31.3163 29.2677 31.3395C29.2214 31.3626 29.1428 31.4297 29.0318 31.5407C28.9207 31.6517 28.8213 31.7882 28.7334 31.9501C28.6455 32.112 28.5668 32.3526 28.4974 32.6718C28.4281 32.991 28.398 33.3496 28.4072 33.7474C28.4072 33.8862 28.391 34.0134 28.3587 34.1291C28.3263 34.2447 28.2916 34.3303 28.2546 34.3858L28.1991 34.4552C28.0325 34.631 27.7873 34.7328 27.4635 34.7606H25.8674C25.2105 34.7976 24.5351 34.7212 23.8412 34.5316C23.1472 34.3419 22.5389 34.0967 22.0161 33.796C21.4934 33.4953 21.0169 33.19 20.5866 32.88C20.1564 32.57 19.8302 32.304 19.6082 32.082L19.2612 31.7489C19.1687 31.6564 19.0415 31.5176 18.8796 31.3325C18.7176 31.1475 18.3869 30.7265 17.8872 30.0696C17.3876 29.4127 16.8972 28.7141 16.4161 27.9739C15.935 27.2337 15.3683 26.2576 14.716 25.0455C14.0637 23.8334 13.46 22.5751 12.9048 21.2705C12.8493 21.1225 12.8215 20.9976 12.8215 20.8958C12.8215 20.794 12.8354 20.72 12.8632 20.6737L12.9187 20.5905C13.0575 20.4147 13.3212 20.3268 13.7098 20.3268L17.5125 20.299C17.6235 20.3175 17.7299 20.3476 17.8317 20.3892C17.9335 20.4309 18.0075 20.4702 18.0538 20.5072L18.1232 20.5488C18.2712 20.6506 18.3822 20.7986 18.4563 20.9929C18.6413 21.4556 18.8541 21.9344 19.0947 22.4294C19.3352 22.9244 19.5249 23.3014 19.6637 23.5605L19.8858 23.963C20.1541 24.5181 20.4131 24.9992 20.663 25.4064C20.9128 25.8135 21.1371 26.1304 21.3361 26.357C21.535 26.5837 21.727 26.7618 21.912 26.8914C22.0971 27.0209 22.2544 27.0857 22.3839 27.0857C22.5134 27.0857 22.6384 27.0625 22.7586 27.0163C22.7771 27.007 22.8003 26.9839 22.828 26.9469C22.8558 26.9099 22.9113 26.8081 22.9946 26.6416C23.0778 26.475 23.1403 26.2576 23.1819 25.9893C23.2236 25.7209 23.2675 25.3462 23.3138 24.8651C23.36 24.384 23.36 23.8057 23.3138 23.1303C23.2953 22.7602 23.2536 22.4224 23.1889 22.1171C23.1241 21.8118 23.0593 21.599 22.9946 21.4787L22.9113 21.3122C22.68 20.9976 22.2868 20.7986 21.7316 20.7154C21.6113 20.6969 21.6345 20.5858 21.801 20.3823C21.949 20.2065 22.1248 20.0677 22.3284 19.9659C22.8188 19.7254 23.9244 19.6143 25.6454 19.6328C26.4041 19.6421 27.0286 19.7022 27.519 19.8133C27.7041 19.8595 27.859 19.922 27.9839 20.0006C28.1088 20.0793 28.2037 20.1903 28.2684 20.3337C28.3332 20.4771 28.3818 20.6252 28.4142 20.7778C28.4466 20.9305 28.4627 21.141 28.4627 21.4093C28.4627 21.6776 28.4581 21.9321 28.4489 22.1726C28.4396 22.4132 28.4281 22.7393 28.4142 23.1511C28.4003 23.5628 28.3934 23.9445 28.3934 24.2961C28.3934 24.3978 28.3887 24.5921 28.3795 24.879C28.3702 25.1658 28.3679 25.3878 28.3725 25.5451C28.3772 25.7024 28.3934 25.8898 28.4211 26.1072C28.4489 26.3247 28.5021 26.5051 28.5807 26.6485C28.6594 26.7919 28.7635 26.9052 28.893 26.9885C28.967 27.007 29.0457 27.0255 29.1289 27.044C29.2122 27.0625 29.3325 27.0116 29.4898 26.8914C29.6471 26.7711 29.8229 26.6115 30.0172 26.4126C30.2115 26.2136 30.452 25.9037 30.7388 25.4827C31.0257 25.0617 31.3403 24.5644 31.6826 23.9907C32.2377 23.0285 32.7327 21.9876 33.1676 20.868C33.2046 20.7755 33.2509 20.6946 33.3064 20.6252C33.3619 20.5558 33.4128 20.5072 33.4591 20.4794L33.5146 20.4378L33.584 20.4031L33.7644 20.3615L34.042 20.3545L38.039 20.3268C38.3998 20.2805 38.6959 20.2921 38.9272 20.3615C39.1585 20.4309 39.302 20.5072 39.3575 20.5905L39.4407 20.7293Z" fill="#016B6B"/>
</g>
<defs>
<clipPath id="clip0_201_4">
<rect width="27.0911" height="17.7646" fill="white" transform="translate(12.3911 17.0649)"/>
</clipPath>
</defs>
</svg>
